<svg width="129" height="32" viewBox="0 0 129 32" fill="none" xmlns="http://www.w3.org/2000/svg">
<g id="Walmart_logo">
<g id="Group">
<g id="Group_2">
<path id="Shape" fill-rule="evenodd" clip-rule="evenodd" d="M37.1092 7.42286V25.4801H40.7375V21.6457V7.422H37.1092V7.42286ZM0.77948 7.42286L0.779939 7.42476L0.779851 7.42476L0.77948 7.42286ZM0.779939 7.42476C0.823509 7.6052 3.95548 20.5758 4.45827 22.6935C5.04923 25.1825 6.11404 26.0986 9.18407 25.4808L11.1651 17.3353C11.6671 15.312 12.0039 13.8695 12.3266 11.8113H12.3834C12.5821 13.632 12.8545 14.9538 13.1967 16.6143L13.1967 16.6144L13.1967 16.6144L13.1967 16.6144C13.2452 16.8495 13.295 17.0913 13.3463 17.3423C13.3463 17.3423 14.1527 21.0402 14.5656 22.9824C14.9797 24.924 16.1319 26.1477 19.1391 25.4815L23.8592 7.42424H20.0482L18.4368 15.2313C18.316 15.8648 18.1984 16.4596 18.0849 17.0333L18.0845 17.0355L18.0842 17.0369L18.0841 17.0373L18.0841 17.0374L18.084 17.0376C17.7908 18.52 17.5257 19.8604 17.3073 21.3583H17.2535C16.9979 19.4486 16.6778 17.8426 16.2811 15.8522L16.1872 15.3807L14.5093 7.42424H10.5386L8.74386 15.1803C8.61269 15.7883 8.48371 16.3661 8.35932 16.9233L8.35932 16.9233L8.35931 16.9233C8.00154 18.5261 7.6818 19.9584 7.45739 21.4487H7.40262C7.09291 19.5573 6.68041 17.1654 6.23371 14.8839C6.23371 14.8839 5.1674 9.33642 4.79328 7.42424L0.779939 7.42476ZM88.2111 7.42291V20.744C88.2111 22.5807 88.5531 23.8674 89.2849 24.6536C89.9241 25.3411 90.9771 25.7863 92.2388 25.7863C93.3115 25.7863 94.367 25.5807 94.8644 25.3934L94.8177 22.5278C94.4475 22.6199 94.0217 22.6936 93.4394 22.6936C92.2034 22.6936 91.7888 21.8935 91.7888 20.2444V15.1478H94.9488V11.693H91.7888V7.42291H88.2111ZM29.0006 11.6089C26.7456 11.6089 24.9557 12.2488 23.98 12.8186L24.694 15.2897C25.587 14.7207 27.0088 14.2497 28.355 14.2497C30.5839 14.244 30.9483 15.5235 30.9483 16.3441V16.5381C26.0915 16.5308 23.0237 18.2293 23.0237 21.6914C23.0237 23.8053 24.5854 25.7862 27.301 25.7862C28.9726 25.7862 30.3707 25.1125 31.2086 24.0329H31.2907C31.2907 24.0329 31.8456 26.3774 34.9023 25.4809C34.7417 24.5051 34.6896 23.4646 34.6896 22.2116V17.3877C34.6896 14.3132 33.3907 11.609 29.0006 11.609L29.0006 11.6089ZM46.7955 13.7584C47.4142 12.7718 48.4345 11.6089 50.705 11.6089L50.7044 11.609C52.4708 11.609 53.8268 12.5735 54.4047 14.0355H54.4585C54.9553 13.2989 55.5236 12.7395 56.1584 12.3458C56.9137 11.8772 57.7491 11.609 58.8075 11.609C61.1973 11.609 63.3144 13.2773 63.3144 17.491V25.4809H59.6681V18.0478C59.6681 15.9123 58.952 14.6766 57.4599 14.6766C56.3655 14.6766 55.5705 15.418 55.271 16.3291C55.1673 16.6439 55.119 17.0728 55.119 17.4288V25.4808H51.4753V17.7492C51.4753 15.9343 50.7865 14.6767 49.3147 14.6767C48.1374 14.6767 47.4 15.6137 47.0978 16.4147C46.969 16.7578 46.9268 17.1522 46.9268 17.5252V25.481H43.2791V11.9151H46.7418V13.7584H46.7955ZM70.7354 11.6089C68.481 11.6089 66.6914 12.2488 65.7148 12.8186L66.4298 15.2897C67.3219 14.7207 68.7446 14.2497 70.0902 14.2497C72.3176 14.244 72.6828 15.5235 72.6828 16.3441V16.5381C67.8267 16.5308 64.7585 18.2293 64.7585 21.6914C64.7585 23.8053 66.321 25.7862 69.038 25.7862C70.7083 25.7862 72.1069 25.1125 72.9432 24.0329H73.0257C73.0257 24.0329 73.5805 26.3774 76.6376 25.4809C76.4768 24.5051 76.4252 23.4646 76.4252 22.2116V17.3877C76.4252 14.3132 75.126 11.609 70.7354 11.609L70.7354 11.6089ZM82.2302 14.4735C82.8973 12.5201 84.4864 11.6089 85.8832 11.6089L85.8834 11.6088C86.2339 11.6088 86.4266 11.6353 86.7083 11.6928V15.2443L86.676 15.2396C86.3522 15.1923 86.0478 15.1478 85.6279 15.1478C84.0473 15.1478 82.946 16.078 82.6692 17.5331C82.6105 17.8328 82.588 18.1595 82.588 18.5342V25.4808H78.8447V11.915H82.1284V14.4735H82.2302ZM31.0655 18.9421V20.6344C31.0655 20.8848 31.0439 21.1431 30.9753 21.3689C30.6945 22.3088 29.7311 23.1031 28.5267 23.1031C27.5226 23.1031 26.7249 22.5271 26.7249 21.3088C26.7249 19.4451 28.7548 18.93 31.0656 18.9421H31.0655ZM72.8003 20.6344V18.9421H72.8004C70.4896 18.93 68.4597 19.4451 68.4597 21.3088C68.4597 22.5271 69.2575 23.1031 70.2619 23.1031C71.4662 23.1031 72.4294 22.3088 72.7102 21.3689C72.7783 21.1431 72.8003 20.8848 72.8003 20.6344Z" fill="#88838F"/>
<path id="Shape_2" fill-rule="evenodd" clip-rule="evenodd" d="M112.464 2.35833C112.464 1.55354 113.395 0.892456 114.567 0.892456L114.568 0.892525C115.741 0.892525 116.675 1.55361 116.675 2.35833L115.96 10.499C115.88 10.9889 115.287 11.3669 114.567 11.3678C113.849 11.3678 113.254 10.9895 113.176 10.499L112.464 2.35833ZM101.236 8.67241C101.675 7.90244 102.366 7.43713 102.974 7.42255L102.974 7.42265C103.177 7.41779 103.371 7.46309 103.543 7.56374L110.163 12.257C110.544 12.5715 110.572 13.2806 110.211 13.9112V13.9116C109.85 14.5391 109.228 14.8678 108.77 14.6956L101.44 11.2454C100.752 10.8435 100.648 9.69769 101.236 8.67241ZM126.159 7.42255C125.957 7.41769 125.763 7.46298 125.592 7.56364L118.97 12.2569C118.591 12.5714 118.563 13.2805 118.923 13.9111L118.924 13.9115C119.285 14.539 119.905 14.8677 120.363 14.6955L127.697 11.2455C128.388 10.8435 128.486 9.69781 127.903 8.67248C127.461 7.90249 126.769 7.43721 126.161 7.42262L126.159 7.42255ZM108.771 18.2093C108.858 18.1766 108.95 18.1618 109.044 18.1631L109.044 18.163C109.455 18.1686 109.922 18.4815 110.215 18.9946L110.212 18.9932C110.574 19.6232 110.545 20.3321 110.165 20.6505L103.543 25.3401C102.855 25.7414 101.823 25.2549 101.237 24.2317C100.649 23.2053 100.753 22.0591 101.441 21.6554L108.771 18.2093ZM120.092 18.1631C119.682 18.1687 119.216 18.4816 118.923 18.9947L118.925 18.9933C118.565 19.6234 118.593 20.3322 118.972 20.6506L125.593 25.3402C126.28 25.7415 127.314 25.2551 127.902 24.2318C128.486 23.2054 128.387 22.0592 127.697 21.6555L120.365 18.2094C120.279 18.1767 120.187 18.1619 120.092 18.1632L120.092 18.1631ZM113.177 22.4037C113.255 21.9145 113.848 21.5378 114.566 21.5369H114.568C115.288 21.5378 115.881 21.9145 115.961 22.4037L116.674 30.544C116.674 31.3502 115.741 32.0099 114.568 32.0099C113.396 32.0099 112.465 31.3502 112.465 30.544L113.177 22.4037Z" fill="#88838F"/>
</g>
</g>
</g>
</svg>
