<svg width="76" height="24" viewBox="0 0 76 24" fill="none" xmlns="http://www.w3.org/2000/svg">
<g id="smiths">
<path id="Path" d="M27.2379 9.55832C30.5173 6.36733 35.1796 9.00502 35.1796 12.2133V21.1076C35.1796 21.9363 35.3919 22.4595 35.8706 22.9392H30.3771C30.8707 22.5686 31.0054 21.9363 31.0054 21.1076V12.2108C31.0054 9.76612 27.6446 9.75822 27.6446 12.2108V21.1071C27.6446 21.9363 28.0109 22.5355 28.4921 22.9388H22.8451C23.3155 22.576 23.6294 21.9363 23.6294 21.1071V12.2108C23.6294 9.75822 20.3343 9.75921 20.3343 12.2108V21.1071C20.3343 21.9358 20.4478 22.5681 20.8046 22.9388H15.3679C16.014 22.3065 16.1522 21.9358 16.1522 21.1071V13.1274C16.1522 11.4986 15.7958 10.6299 14.8664 10.0317L20.3278 8.35695L20.3367 9.6368C21.9522 7.80513 25.315 7.43445 27.2384 9.55684L27.2379 9.55832Z" fill="#88838F"/>
<path id="Path_2" d="M36.88 5.21882C36.88 3.84568 37.8405 2.73315 39.0261 2.73315C40.2117 2.73315 41.1702 3.84568 41.1702 5.21882C41.1702 6.59196 40.2092 7.70399 39.0261 7.70399C37.843 7.70399 36.88 6.59146 36.88 5.21882Z" fill="#88838F"/>
<path id="Path_3" d="M50.1499 21.0455C49.4589 21.5884 47.7664 21.2992 47.7664 19.7735V9.82839H49.8394L50.5304 8.37431H47.6721V4.81116L42.5883 9.86491H43.2659C43.6223 9.86837 43.7807 10.0781 43.7807 10.6852V19.8461C43.7807 21.6274 45.414 23.2271 47.4525 23.2271C49.491 23.2271 50.027 22.3915 50.5289 21.773C50.6592 21.563 50.7747 21.3441 50.8745 21.118L50.4663 20.7918C50.4663 20.7918 50.3725 20.8628 50.1519 21.0455H50.1499Z" fill="#88838F"/>
<path id="Path_4" d="M55.7016 9.43049V2.21338L50.366 4.395C51.3073 4.75926 51.5269 5.30467 51.5269 6.57711V21.1071C51.5269 21.9358 51.3334 22.3939 50.7436 22.9388H56.173C55.7673 22.5247 55.7026 21.9363 55.7026 21.1071V12.2108C55.7026 9.76415 58.9967 9.76564 58.9967 12.2108V21.1071C58.9967 21.9358 58.7253 22.5034 58.2129 22.9388H63.6379C63.204 22.5247 62.8264 21.9363 62.8264 21.1071V12.2108C62.8264 8.84067 58.551 6.49765 55.7026 9.43049H55.7016Z" fill="#88838F"/>
<path id="Path_5" d="M63.1838 8.2327C62.169 7.99282 61.5244 7.35166 61.5244 6.15029C61.5244 4.94891 62.3531 3.98792 63.3901 3.98792C64.4271 3.98792 65.2568 4.94891 65.2568 6.15029C65.1423 7.75244 64.6349 8.95382 63.5061 9.94147C63.3442 10.1019 63.1606 9.88816 63.4597 9.48787C63.7356 9.08708 63.7356 8.74059 63.6892 8.50071C63.6438 8.34079 63.4824 8.28748 63.1833 8.23368L63.1838 8.2327Z" fill="#88838F"/>
<path id="Shape" fill-rule="evenodd" clip-rule="evenodd" d="M74.5983 21.1328C74.0864 21.1328 73.6531 21.579 73.6531 22.1822C73.6531 22.7927 74.0929 23.2369 74.5983 23.2369C75.1037 23.2369 75.5361 22.7873 75.5361 22.1822C75.5361 21.577 75.1101 21.1328 74.5983 21.1328ZM75.3505 22.1822C75.3505 22.6886 75.0193 23.0613 74.5983 23.0613C74.1733 23.0613 73.8402 22.6886 73.8402 22.1822C73.8402 21.6847 74.1773 21.3086 74.5983 21.3086C75.0193 21.3086 75.3505 21.6842 75.3505 22.1822ZM74.4009 22.7918H74.239V21.579H74.6462C74.8994 21.579 75.0262 21.6847 75.0262 21.9245C75.0262 22.1402 74.9043 22.234 74.7478 22.2582L75.0529 22.7918H74.8707L74.5879 22.2661H74.4009V22.7918ZM74.8555 21.913C74.8555 22.0989 74.7332 22.1102 74.5951 22.1102L74.4009 22.1112V21.735H74.6223C74.7361 21.735 74.8555 21.7651 74.8555 21.913Z" fill="#88838F"/>
<path id="Path_6" d="M10.2095 18.0806C10.2095 12.9083 2.24312 11.6764 1.26632 6.55697C0.244617 1.19818 6.05404 -0.852642 8.85115 0.662152C10.6917 1.66066 11.3881 1.11476 12.3358 0.589596V7.50267C12.3358 7.79881 11.9804 7.85952 11.8802 7.56634C11.1922 5.55846 10.4232 3.55699 8.79833 2.38376C5.51406 0.011615 3.20609 3.79737 7.34869 7.12212C9.56782 8.89999 14.2731 11.63 14.6616 15.7499C14.6798 15.9424 15.3111 20.0726 11.8901 22.3145C10.7766 23.045 8.82992 23.4433 6.87831 23.159C4.35119 22.7913 4.27962 21.9596 3.04666 21.8002C2.00521 21.6664 1.18488 22.8002 0.973633 22.9354C0.994363 22.886 0.973633 18.0366 0.973633 15.6304C0.988934 15.5934 1.29791 15.511 1.45882 15.7563C2.04766 18.2889 3.57677 19.8806 4.62513 20.6427C5.82847 21.5228 10.2095 22.0939 10.2095 18.0806Z" fill="#88838F"/>
<path id="Path_7" d="M70.5563 19.8387C70.315 16.43 65.0485 15.665 64.5312 12.2726C63.9537 8.46365 68.3095 7.4069 70.2908 8.40195C71.5968 9.05742 72.0894 8.6981 72.7616 8.35259V12.8935C72.7616 13.091 72.5099 13.128 72.4388 12.9355C71.9507 11.6171 71.4418 10.246 70.2542 9.52978C68.1565 8.27115 66.4404 10.665 69.3786 12.4913C71.8539 14.0307 73.9334 15.9192 74.1594 18.3061C74.1703 18.433 74.6185 21.1447 72.1925 22.616C71.4028 23.0948 70.0208 23.3564 68.6388 23.1713C66.8456 22.9295 66.7957 22.3841 65.9211 22.2794C65.1808 22.1906 64.6013 22.8535 64.4503 22.9393C64.4646 22.9082 64.4503 19.8061 64.4503 18.2262C64.4621 18.2015 64.6798 18.1482 64.7958 18.3096C65.1293 19.6164 65.9275 20.7569 67.041 21.5178C67.8964 22.0963 70.7429 22.4645 70.5573 19.8342L70.5563 19.8387Z" fill="#88838F"/>
<path id="Path_8" d="M41.7126 8.35706L36.2526 10.0298C37.1904 10.6399 37.5394 11.5105 37.5394 13.1255V21.1072C37.5394 21.9359 37.3449 22.4043 36.7551 22.9389H42.6543C41.9801 22.5934 41.7126 21.9359 41.7126 21.0845V8.35706Z" fill="#88838F"/>
</g>
</svg>
