<svg width="66" height="39" viewBox="0 0 66 39" fill="none" xmlns="http://www.w3.org/2000/svg">
<g id="Group">
<path id="Vector" d="M0.133179 38.808C0.133179 25.8994 0.133179 13.0244 0.133179 0.140924C0.275676 0.0990126 62.4799 0.073866 62.9074 0.115777C62.9494 0.266656 62.9661 38.3302 62.9242 38.7661C62.9158 38.7745 62.9158 38.7745 62.9074 38.7828C62.8991 38.7828 62.8991 38.7912 62.8907 38.7912C62.8069 38.7912 62.7314 38.7996 62.6476 38.7996C41.8262 38.808 20.9881 38.808 0.133179 38.808ZM0.694786 38.1961C21.2479 38.1961 41.7843 38.1961 62.3291 38.1961C62.3291 37.274 62.3291 36.3688 62.3291 35.4383C51.6837 35.4383 41.0551 35.4383 30.3845 35.4383C30.4767 35.1869 30.5605 34.9606 30.6444 34.7342C41.2143 34.7342 51.7675 34.7342 62.3207 34.7342C62.3207 33.8122 62.3207 32.8985 62.3207 31.9681C62.0608 31.9681 61.8178 31.9681 61.5663 31.9681C61.3148 31.9681 61.0717 31.9681 60.8203 31.9681C60.5688 31.9681 60.3257 31.9681 60.0743 31.9681C59.8312 31.9681 59.5881 31.9681 59.3534 31.9681C59.1019 31.9681 58.8588 31.9681 58.6074 31.9681C58.3559 31.9681 58.1128 31.9681 57.8614 31.9681C57.6099 31.9681 57.3668 31.9681 57.1153 31.9681C56.8723 31.9681 56.6292 31.9765 56.3693 31.9597C56.5286 31.7167 56.6711 31.4987 56.8303 31.264C58.6409 31.264 60.4682 31.264 62.3123 31.264C62.3123 30.3336 62.3123 29.4283 62.3123 28.4979C60.7616 28.4979 59.2109 28.4979 57.635 28.4979C57.7105 28.2464 57.7775 28.0201 57.853 27.777C59.345 27.777 60.8287 27.777 62.3123 27.777C62.3123 26.855 62.3123 25.9413 62.3123 25.0109C57.6602 25.0109 53.0332 25.0109 48.3895 25.0109C48.3392 24.751 48.4062 24.5415 48.4901 24.3152C49.2612 24.3152 50.0324 24.3152 50.8036 24.3152C51.5663 24.3152 52.3291 24.3152 53.0919 24.3152C53.8631 24.3152 54.6342 24.3152 55.4054 24.3152C56.1765 24.3152 56.9477 24.3152 57.7189 24.3152C58.4816 24.3152 59.2444 24.3152 60.0072 24.3152C60.7784 24.3152 61.5411 24.3152 62.3039 24.3152C62.3458 23.9883 62.3291 21.7083 62.2872 21.549C47.216 21.549 32.1364 21.549 17.0652 21.549C17.0065 21.4233 16.9479 21.306 16.8892 21.197C16.8221 21.0796 16.7551 20.9791 16.6629 20.8366C31.9017 20.8366 47.0986 20.8366 62.3207 20.8366C62.3207 19.9061 62.3207 19.0009 62.3207 18.0788C62.1027 18.0788 61.9183 18.0788 61.7339 18.0788C61.5411 18.0788 61.3484 18.0788 61.1472 18.0788C60.9628 18.0788 60.77 18.0788 60.5856 18.0788C60.4012 18.0788 60.2084 18.0788 60.024 18.0788C59.8312 18.0788 59.6384 18.0788 59.4372 18.0788C59.2528 18.0788 59.06 18.0788 58.8756 18.0788C58.6912 18.0788 58.4984 18.0788 58.314 18.0788C58.1212 18.0788 57.9284 18.0872 57.7272 18.0788C57.5428 18.0704 57.3584 18.104 57.1824 18.0537C57.2411 17.819 57.2914 17.601 57.35 17.358C59.0013 17.358 60.6526 17.358 62.3039 17.358C62.3375 17.0646 62.3291 14.7595 62.2872 14.5918C61.7423 14.5918 61.1975 14.5918 60.6442 14.5918C60.091 14.5918 59.5462 14.5918 58.993 14.5918C58.4481 14.5918 57.9033 14.5918 57.3584 14.5918C57.3584 14.3404 57.3584 14.1308 57.3584 13.8961C57.6099 13.8961 57.8446 13.8961 58.0709 13.8961C58.3056 13.8961 58.5403 13.8961 58.775 13.8961C59.0097 13.8961 59.2444 13.8961 59.4791 13.8961C59.7222 13.8961 59.9653 13.8961 60.2 13.8961C60.4347 13.8961 60.6694 13.8961 60.9041 13.8961C61.1388 13.8961 61.3735 13.8961 61.6082 13.8961C61.8429 13.8961 62.0692 13.9045 62.2955 13.8877C62.3375 13.5357 62.3207 11.2725 62.2788 11.1384C62.2704 11.1384 62.2704 11.13 62.262 11.13C62.2536 11.13 62.2452 11.13 62.2452 11.13C62.2285 11.13 62.2201 11.13 62.2033 11.13C62.1866 11.13 62.1782 11.13 62.1614 11.13C58.2218 11.13 54.2822 11.13 50.3425 11.13C50.2922 11.13 50.2503 11.13 50.2 11.13C50.1833 11.13 50.1749 11.13 50.1581 11.13C50.1497 11.13 50.1414 11.13 50.1414 11.13C50.133 11.13 50.1246 11.13 50.1246 11.13C50.1078 11.13 50.0994 11.13 50.0827 11.1216C50.0743 11.1216 50.0743 11.1132 50.0659 11.1132C50.0575 11.1132 50.0575 11.1048 50.0492 11.0965C50.0492 10.8785 50.0492 10.6606 50.0492 10.4175C50.6443 10.4175 51.2227 10.4175 51.801 10.4175C52.3878 10.4175 52.9662 10.4175 53.5529 10.4175C54.1397 10.4175 54.718 10.4175 55.3048 10.4175C55.8915 10.4175 56.4867 10.4175 57.0734 10.4175C57.6602 10.4175 58.2386 10.4175 58.8253 10.4175C59.4121 10.4175 59.9904 10.4175 60.5772 10.4175C61.1556 10.4175 61.7339 10.4259 62.3123 10.4091C62.3123 9.47869 62.3123 8.57341 62.3123 7.64299C60.1413 7.64299 57.9787 7.64299 55.8161 7.64299C55.8161 7.39152 55.8161 7.17358 55.8161 6.9305C56.1011 6.9305 56.3693 6.9305 56.6292 6.9305C56.9058 6.9305 57.1824 6.9305 57.4506 6.9305C57.7189 6.9305 57.9871 6.9305 58.2553 6.9305C58.5236 6.9305 58.7918 6.9305 59.06 6.9305C59.3366 6.9305 59.6132 6.9305 59.8815 6.9305C60.1497 6.9305 60.4179 6.9305 60.6862 6.9305C60.9628 6.9305 61.2394 6.9305 61.5076 6.9305C61.7758 6.9305 62.0357 6.9305 62.2955 6.92212C62.3375 6.58683 62.3207 4.31526 62.2788 4.17276C41.7424 4.17276 21.206 4.17276 0.669639 4.17276C0.627728 4.47452 0.644493 6.76286 0.686404 6.9305C2.38799 6.9305 4.08957 6.9305 5.79954 6.9305C5.79954 7.17358 5.79954 7.3999 5.79954 7.64299C4.08119 7.64299 2.37122 7.64299 0.661257 7.64299C0.661257 8.57341 0.661257 9.47869 0.661257 10.4091C2.37961 10.4091 4.08957 10.4091 5.79954 10.4091C5.79954 10.6522 5.79954 10.8785 5.79954 11.1216C4.08119 11.1216 2.37122 11.1216 0.661257 11.1216C0.661257 12.052 0.661257 12.9573 0.661257 13.8877C0.921105 13.8877 1.16419 13.8877 1.41565 13.8877C1.65874 13.8877 1.90182 13.8877 2.13652 13.8877C2.38799 13.8877 2.63107 13.8877 2.88254 13.8877C3.12562 13.8877 3.36871 13.8877 3.60341 13.8877C3.85487 13.8877 4.09796 13.8877 4.34942 13.8877C4.59251 13.8877 4.83559 13.8877 5.07029 13.8877C5.31338 13.8877 5.55646 13.8877 5.81631 13.8961C5.81631 14.1392 5.83307 14.3571 5.80793 14.6002C4.08119 14.6002 2.37961 14.6002 0.661257 14.6002C0.661257 15.5306 0.661257 16.4359 0.661257 17.3663C1.23963 17.3663 1.80962 17.3663 2.37961 17.3663C2.95798 17.3663 3.53635 17.3663 4.10634 17.3663C4.66795 17.3663 5.23794 17.358 5.79954 17.3747C5.79954 17.6178 5.79954 17.8357 5.79954 18.0788C4.08119 18.0788 2.37122 18.0788 0.661257 18.0788C0.661257 19.0092 0.661257 19.9145 0.661257 20.8449C3.72076 20.8449 6.7635 20.8449 9.80623 20.8449C9.76432 20.912 9.71403 20.9455 9.67212 20.9707C9.4458 21.1216 9.21948 21.2557 9.00154 21.4149C8.87581 21.5071 8.75008 21.549 8.5992 21.549C6.04263 21.5407 3.47767 21.549 0.921105 21.549C0.837283 21.549 0.753461 21.549 0.669639 21.549C0.669639 22.4879 0.669639 23.3931 0.669639 24.3152C1.00493 24.3152 1.32345 24.3152 1.64197 24.3152C1.96888 24.3152 2.29579 24.3152 2.63107 24.3152C2.9496 24.3152 3.2765 24.3152 3.59503 24.3152C3.92193 24.3152 4.24884 24.3152 4.58412 24.3152C4.90265 24.3152 5.22955 24.3152 5.54808 24.3152C5.87498 24.3152 6.19351 24.3152 6.53718 24.3152C6.41983 24.5666 6.31924 24.7846 6.21865 25.0193C4.36619 25.0193 2.5221 25.0193 0.669639 25.0193C0.669639 25.9497 0.669639 26.855 0.669639 27.7854C0.761843 27.7854 0.837283 27.7854 0.921105 27.7854C2.77357 27.7854 4.61765 27.7854 6.47012 27.7854C6.61262 27.7854 6.7132 27.8189 6.82217 27.9279C6.98143 28.0955 7.15746 28.2297 7.33348 28.3805C7.36701 28.4057 7.39216 28.4392 7.4676 28.5063C5.17088 28.5063 2.92445 28.5063 0.669639 28.5063C0.669639 29.4367 0.669639 30.3336 0.669639 31.264C2.10299 31.264 3.51959 31.264 4.97809 31.264C4.86912 31.5155 4.76853 31.7334 4.66795 31.9681C3.99737 31.9681 3.33518 31.9681 2.67298 31.9681C2.00241 31.9681 1.34021 31.9681 0.669639 31.9681C0.669639 32.9069 0.669639 33.8122 0.669639 34.7426C9.7727 34.7426 18.859 34.7426 27.9788 34.7426C27.8866 34.9857 27.8028 35.2036 27.7106 35.4383C18.6914 35.4383 9.6805 35.4383 0.669639 35.4383C0.694786 36.3688 0.694786 37.274 0.694786 38.1961ZM0.703168 3.44351C21.2563 3.44351 41.7927 3.44351 62.3207 3.44351C62.3626 3.20881 62.3542 0.861792 62.3123 0.719295C62.0022 0.677384 0.854047 0.694148 0.703168 0.736059C0.703168 1.62457 0.703168 2.52147 0.703168 3.44351Z" fill="#88838F"/>
<path id="Vector_2" d="M63.6954 37.0392C63.6954 36.4189 64.1899 35.9328 64.8102 35.9411C65.4137 35.9495 65.9083 36.4441 65.9083 37.0476C65.9083 37.6595 65.4053 38.1624 64.7934 38.154C64.1815 38.154 63.687 37.6595 63.6954 37.0392ZM63.9384 37.056C63.9384 37.4835 64.1815 37.8188 64.5587 37.9193C64.9946 38.0367 65.4221 37.8271 65.5814 37.4248C65.7574 36.9889 65.5981 36.4776 65.2209 36.2597C65.1706 36.2261 65.1119 36.2094 65.0533 36.1842C64.4749 36.0082 63.9384 36.4273 63.9384 37.056Z" fill="#88838F"/>
<path id="Vector_3" d="M31.4407 32.1274C30.854 33.7116 30.284 35.2623 29.7056 36.813C28.9428 36.813 28.1884 36.813 27.4005 36.813C27.4256 36.7292 27.4508 36.6537 27.4759 36.5867C28.289 34.4744 29.0937 32.3621 29.9068 30.2414C29.9487 30.124 29.9906 30.0067 30.0409 29.8725C29.7559 29.8725 29.496 29.8725 29.2278 29.8725C29.1943 29.9396 29.1524 30.015 29.1188 30.0821C28.7333 30.8868 28.2387 31.616 27.5514 32.1944C26.7635 32.8482 25.8582 33.1919 24.8355 33.2003C24.1231 33.2087 23.5531 32.9153 23.1172 32.3537C22.7819 31.9262 22.564 31.4316 22.4718 30.8952C22.4215 30.6186 22.4634 30.3252 22.4634 30.0318C22.4634 29.9815 22.4718 29.9312 22.4718 29.8642C22.2035 29.8642 21.9437 29.8642 21.6671 29.8642C21.6335 29.9312 21.5916 30.015 21.5581 30.0905C21.2061 30.7862 20.7869 31.44 20.217 31.9849C19.3871 32.7728 18.4064 33.1919 17.258 33.2003C16.5958 33.2003 16.0426 32.9404 15.6235 32.4207C15.0787 31.7418 14.8021 30.979 14.9026 30.0905C15.02 29.0595 15.3218 28.1039 15.9253 27.2489C16.6126 26.2933 17.543 25.7234 18.6998 25.5138C19.1776 25.43 19.6554 25.4048 20.1331 25.5222C20.7786 25.6814 21.2564 26.0754 21.5833 26.6454C21.8012 27.031 21.9353 27.4417 21.994 27.8776C22.0024 27.953 22.0191 28.0201 22.0359 28.1207C22.3209 28.1207 22.6059 28.1207 22.8993 28.1207C22.9915 28.1207 22.9998 28.0452 23.0334 27.9865C23.1759 27.7518 23.2932 27.5004 23.4525 27.2824C24.2153 26.2011 25.263 25.6228 26.5623 25.4635C26.9059 25.4216 27.2412 25.4216 27.5849 25.4887C28.3645 25.6395 28.9177 26.0922 29.253 26.8047C29.3368 26.9891 29.4038 27.1735 29.4625 27.3663C29.5128 27.5507 29.5463 27.7435 29.5883 27.9614C29.9738 27.9698 30.3678 27.9614 30.7785 27.9698C31.4323 26.4023 32.0778 24.8348 32.7316 23.2758C33.4441 23.2758 34.1482 23.2758 34.8858 23.2758C34.7182 23.7452 34.5337 24.181 34.3661 24.6253C34.1985 25.0695 34.0141 25.5138 33.8296 26C33.9302 25.9664 33.9805 25.9497 34.0308 25.9245C34.3996 25.7736 34.7684 25.6144 35.1456 25.4551C35.3971 25.3545 35.657 25.2959 35.9252 25.3294C36.2018 25.3629 36.4365 25.4887 36.6377 25.6731C36.8472 25.8742 36.9897 26.1089 37.1071 26.3688C37.2999 26.7963 37.4088 27.2405 37.4759 27.7016C37.4843 27.777 37.501 27.8608 37.5178 27.953C37.828 27.953 38.1297 27.953 38.4566 27.953C38.5069 27.8524 38.5656 27.7435 38.6326 27.6261C39.0098 26.922 39.4792 26.2933 40.1079 25.7904C40.7282 25.2959 41.4323 25.0109 42.237 25.0025C42.6561 24.9941 43.0668 25.036 43.4608 25.1869C44.1733 25.4467 44.6091 26.0419 44.6427 26.8047C44.6511 26.922 44.6427 27.031 44.6427 27.1483C44.6427 27.3411 44.6008 27.5171 44.5253 27.6932C44.2403 28.3135 43.9721 28.9421 43.6955 29.5624C43.662 29.6295 43.6368 29.6965 43.5949 29.7803C43.5195 29.7803 43.4524 29.7803 43.377 29.7803C42.589 29.7803 41.7927 29.7803 41.0048 29.7803C40.9461 29.7803 40.8875 29.7803 40.8204 29.7803C40.5186 29.8055 40.351 30.0067 40.3678 30.3084C40.3845 30.6102 40.6276 30.8784 40.9545 30.87C41.7676 30.8616 42.5723 30.8616 43.3853 30.87C43.4775 30.87 43.5446 30.8533 43.6033 30.7694C44.3996 29.6462 45.1959 28.5314 45.9922 27.4166C46.009 27.3914 46.0174 27.3663 46.0341 27.3411C45.9922 27.316 45.9503 27.2992 45.9084 27.2824C45.4222 27.0729 45.2294 26.7041 45.33 26.176C45.3552 26.0503 45.3887 25.9245 45.4474 25.8156C45.7072 25.2456 45.9671 24.6672 46.2353 24.0972C46.2521 24.0637 46.2688 24.0385 46.2856 24.005C46.9981 24.005 47.7022 24.005 48.4314 24.005C48.4063 24.0804 48.3895 24.1307 48.3727 24.1894C48.3225 24.3738 48.2722 24.5498 48.2303 24.7343C48.2135 24.8097 48.2135 24.8935 48.2303 24.969C48.2722 25.2037 48.3895 25.3042 48.6326 25.3042C49.0685 25.3042 49.5043 25.3042 49.9402 25.3042C50.4934 25.3042 51.0383 25.3042 51.5915 25.3042C51.667 25.3042 51.734 25.3042 51.8262 25.3042C51.8095 25.3629 51.8011 25.4048 51.7843 25.4467C51.0551 27.031 50.3174 28.6068 49.5882 30.1911C49.5379 30.3 49.5043 30.4174 49.496 30.5347C49.4876 30.7108 49.6049 30.8365 49.7893 30.8616C49.9989 30.8868 50.1749 30.8113 50.3174 30.6605C50.7701 30.1827 51.2227 29.7049 51.6753 29.2271C52.8824 27.953 54.0894 26.6789 55.2964 25.3965C55.3635 25.321 55.4389 25.2875 55.5395 25.2875C56.4532 25.2875 57.3585 25.2875 58.2721 25.2875C58.314 25.2875 58.3643 25.2959 58.423 25.3042C58.4062 25.3797 58.3895 25.4384 58.3727 25.5054C57.8279 27.3411 57.2914 29.1768 56.7382 31.0125C56.6963 31.155 56.6124 31.2975 56.537 31.4232C56.2939 31.8172 55.9922 32.1693 55.5982 32.4291C55.2629 32.6554 54.8941 32.7812 54.4834 32.7728C53.9553 32.7644 53.4272 32.7728 52.8991 32.7728C52.8237 32.7728 52.7566 32.7728 52.6644 32.7728C52.6393 32.2028 52.6812 31.6496 52.6812 31.088C52.589 31.088 52.5639 31.155 52.5136 31.1969C52.0274 31.6831 51.5328 32.1693 51.0467 32.6638C50.9461 32.7644 50.8539 32.8063 50.7114 32.7979C49.9151 32.7895 49.1188 32.7979 48.3225 32.7812C48.0878 32.7728 47.8531 32.7393 47.6351 32.6638C47.0903 32.4794 46.8975 32.0771 46.9142 31.5574C46.9226 31.2221 47.0148 30.9119 47.1657 30.6102C47.6519 29.6295 48.1297 28.6487 48.6075 27.668C48.6326 27.6177 48.6577 27.5591 48.6829 27.492C48.4817 27.4501 48.2889 27.4669 48.0961 27.4836C48.0458 27.4836 47.9956 27.5591 47.9536 27.6094C47.5345 28.2045 47.1238 28.7996 46.7131 29.3864C45.9587 30.4761 45.1959 31.5657 44.4415 32.6554C44.3577 32.7812 44.2655 32.8315 44.1146 32.8231C42.7315 32.8147 41.3569 32.8231 39.9738 32.8147C39.7559 32.8147 39.5295 32.7895 39.32 32.7476C38.6913 32.6219 38.2722 32.2363 38.0375 31.6496C37.8279 31.1131 37.8112 30.5515 37.8615 29.9899C37.8615 29.9564 37.8699 29.9228 37.8782 29.8642C37.6435 29.839 37.4088 29.8558 37.1658 29.8558C37.1238 29.9145 37.0903 29.9815 37.0484 30.0402C36.5706 30.8365 36.0006 31.5657 35.2714 32.1525C34.7014 32.6135 34.0727 32.9656 33.3519 33.1248C33.3351 33.1332 33.3099 33.1332 33.2932 33.1416C32.9244 33.217 32.9244 33.217 32.6142 32.9823C32.2789 32.7309 31.952 32.4878 31.6167 32.2363C31.5748 32.2196 31.5245 32.1776 31.4407 32.1274ZM19.8984 28.1458C19.8481 27.9111 19.7392 27.6848 19.5967 27.5088C19.3033 27.1399 18.9261 27.0477 18.507 27.2657C18.046 27.5088 17.6772 27.8608 17.4257 28.3135C17.2413 28.6404 17.1155 28.9924 16.9898 29.3445C16.8725 29.6881 16.8222 30.0486 16.8557 30.409C16.8808 30.6521 16.9563 30.8616 17.1239 31.0461C17.1994 31.1299 17.2916 31.1885 17.4173 31.2137C17.8448 31.2891 18.222 31.1718 18.5657 30.9203C18.8926 30.6772 19.1357 30.3503 19.3284 29.9983C19.3452 29.9647 19.362 29.9145 19.3787 29.8558C19.0351 29.8558 18.7165 29.8558 18.3645 29.8558C18.5489 29.269 18.7417 28.7074 18.9345 28.1374C19.253 28.1458 19.5631 28.1458 19.8984 28.1458ZM27.4676 28.1374C27.3586 27.7435 27.2077 27.4082 26.8473 27.2238C26.7215 27.1567 26.579 27.1316 26.4365 27.1651C26.3108 27.1986 26.1683 27.2238 26.0593 27.2908C25.5564 27.5842 25.1289 27.9614 24.8691 28.5062C24.626 29.0176 24.4332 29.5456 24.3913 30.1156C24.3745 30.3839 24.4081 30.6353 24.5338 30.8784C24.6679 31.1299 24.8607 31.2472 25.1457 31.2472C25.5732 31.2556 25.9252 31.0963 26.2438 30.8197C26.4952 30.5934 26.6964 30.3252 26.864 30.0318C26.8892 29.9899 26.9059 29.9396 26.9395 29.8642C26.5874 29.8642 26.2689 29.8642 25.9085 29.8642C26.1013 29.2774 26.294 28.7158 26.4785 28.1458C26.8054 28.1374 27.1239 28.1374 27.4676 28.1374ZM31.9269 31.2472C32.8908 30.8952 33.7458 30.4341 34.4248 29.6965C34.6176 29.4786 34.7852 29.2271 34.9361 28.984C35.0534 28.7912 35.1205 28.5733 35.1205 28.3386C35.1121 27.9279 34.8271 27.6932 34.4332 27.7686C34.1565 27.8189 33.9386 27.9614 33.7374 28.1542C32.8741 28.9673 32.3125 29.9647 31.9604 31.088C31.9436 31.1215 31.9436 31.1718 31.9269 31.2472ZM55.506 27.8776C55.4641 27.9279 55.4138 27.9698 55.3719 28.0201C55.2126 28.1961 55.0617 28.3721 54.9025 28.5482C54.3409 29.1768 53.7793 29.8055 53.2177 30.4425C53.1674 30.5012 53.0835 30.5515 53.1003 30.6605C53.2344 30.7611 53.3769 30.7024 53.511 30.694C54.0894 30.6521 54.5169 30.3671 54.8103 29.8725C55.1875 29.2523 55.3886 28.5817 55.506 27.8776ZM41.1222 27.9865C41.4742 27.9865 41.8179 27.9698 42.1615 27.9949C42.3627 28.0117 42.4549 27.9111 42.5136 27.7518C42.5387 27.6848 42.5639 27.6094 42.5723 27.5423C42.5974 27.3327 42.5136 27.1651 42.3543 27.031C42.2118 26.9136 42.0526 26.9136 41.9017 27.0058C41.5245 27.2238 41.2647 27.5507 41.1054 27.9446C41.1054 27.9446 41.1138 27.953 41.1222 27.9865Z" fill="#88838F"/>
<path id="Vector_4" d="M42.4801 19.3781C42.4046 19.3781 42.3376 19.3781 42.2705 19.3781C40.7533 19.3781 39.2445 19.3781 37.7274 19.3865C37.5681 19.3865 37.4759 19.3278 37.3837 19.202C36.4449 17.8693 35.5061 16.5449 34.5589 15.2121C34.517 15.1534 34.4751 15.1031 34.4331 15.0445C34.4164 15.0529 34.3996 15.0529 34.3912 15.0612C34.3912 16.503 34.3912 17.9447 34.3912 19.3948C32.5555 19.3948 30.745 19.3948 28.9177 19.3948C28.9177 14.5751 28.9177 9.77207 28.9177 4.95231C28.9931 4.95231 29.0602 4.94393 29.1188 4.94393C30.5941 4.94393 32.0694 4.94393 33.5446 4.93555C33.6955 4.93555 33.7877 4.98584 33.8799 5.10319C34.7852 6.25155 35.6989 7.40829 36.6125 8.55665C36.6544 8.61533 36.7047 8.66562 36.7718 8.71592C36.7969 8.46445 36.7969 8.22137 36.7969 7.97828C36.7969 7.72682 36.7969 7.46697 36.7969 7.2155C36.7969 6.96404 36.7969 6.72095 36.7969 6.46949C36.7969 6.21802 36.7969 5.95817 36.7969 5.70671C36.7969 5.46362 36.7969 5.21216 36.7969 4.95231C38.6997 4.95231 40.5857 4.95231 42.4717 4.95231C42.5136 5.09481 42.522 19.1098 42.4801 19.3781Z" fill="#88838F"/>
<path id="Vector_5" d="M11.5414 19.4031C9.69731 19.4031 7.88675 19.4031 6.08458 19.4031C6.04267 19.2522 6.03429 5.22041 6.0762 4.96056C7.90352 4.96056 9.72246 4.96056 11.5749 4.96056C11.5749 6.36877 11.5749 7.7686 11.5749 9.17681C11.5917 9.18519 11.6084 9.18519 11.6168 9.19357C11.6587 9.1349 11.7007 9.0846 11.7426 9.02593C12.7065 7.72669 13.6705 6.43583 14.626 5.13659C14.7266 4.99409 14.8356 4.9438 15.0032 4.95218C16.73 4.96056 18.4651 4.95218 20.1918 4.95218C20.2673 4.95218 20.3343 4.95218 20.4181 4.95218C20.4265 5.04438 20.3678 5.09468 20.3259 5.15335C19.429 6.4023 18.5238 7.65125 17.6185 8.90019C17.1658 9.52886 16.7132 10.1491 16.2689 10.7778C16.227 10.8281 16.1935 10.8868 16.1348 10.9706C16.2103 10.9706 16.2522 10.9706 16.2941 10.9706C17.828 10.8784 19.2195 12.0016 19.4542 13.5104C19.4877 13.7116 19.4961 13.9127 19.4961 14.1139C19.4961 15.7987 19.4961 17.4752 19.4961 19.16C19.4961 19.2354 19.4961 19.3025 19.4961 19.4031C17.7107 19.4198 15.942 19.4282 14.1566 19.4115C14.1483 19.3109 14.1399 19.2354 14.1399 19.16C14.1399 18.3469 14.1399 17.5422 14.1399 16.7292C14.1399 15.9915 13.7375 15.5557 12.9999 15.4886C12.7233 15.4635 12.455 15.497 12.1952 15.5976C11.8599 15.7317 11.5246 16.0418 11.533 16.5783C11.5414 17.4416 11.533 18.305 11.533 19.1684C11.5414 19.2438 11.5414 19.3109 11.5414 19.4031Z" fill="#88838F"/>
<path id="Vector_6" d="M55.6317 4.93555C55.6317 6.41081 55.6317 7.86093 55.6317 9.34458C55.5395 9.34458 55.4557 9.34458 55.3719 9.34458C53.7793 9.34458 52.1867 9.34458 50.5857 9.34458C50.5186 9.34458 50.4515 9.34458 50.3845 9.34458C50.1414 9.36973 49.957 9.52061 49.9067 9.76369C49.8899 9.84751 49.8816 9.93972 49.8816 10.0235C49.8816 11.2725 49.8816 12.5298 49.8816 13.7788C49.8816 14.3488 50.1498 14.6757 50.7198 14.7762C50.9545 14.8182 51.1892 14.8014 51.4155 14.7176C51.7927 14.5835 51.9855 14.3152 51.9939 13.9129C52.0022 13.2758 51.9939 12.6388 51.9939 12.0017C51.9939 11.9263 51.9939 11.8425 51.9939 11.7503C53.729 11.7503 55.4473 11.7503 57.1824 11.7503C57.1908 11.8089 57.1992 11.8676 57.1992 11.9263C57.1992 13.6363 57.1992 15.3462 57.1992 17.0562C57.1992 17.601 57.0735 18.104 56.7298 18.5398C56.361 19.0009 55.8581 19.244 55.2881 19.3362C55.0701 19.3697 54.8522 19.3865 54.6259 19.3865C51.8765 19.3865 49.1355 19.3865 46.3862 19.3948C45.5983 19.3948 45.045 19.0344 44.6511 18.389C44.4331 18.0369 44.3242 17.643 44.3242 17.2238C44.3242 13.8458 44.3242 10.4678 44.3242 7.08977C44.3242 5.92465 45.2378 4.99422 46.4029 4.94393C46.5035 4.94393 46.6041 4.94393 46.7047 4.94393C49.5882 4.94393 52.48 4.94393 55.3635 4.94393C55.4473 4.93555 55.5312 4.93555 55.6317 4.93555Z" fill="#88838F"/>
<path id="Vector_7" d="M26.7885 4.96886C26.7885 9.77185 26.7885 14.5665 26.7885 19.3611C26.6376 19.403 21.7341 19.4198 21.4491 19.3778C21.4407 19.3778 21.4407 19.3695 21.4323 19.3695C21.4239 19.3611 21.4239 19.3611 21.4239 19.3527C21.4155 19.3276 21.4155 19.3024 21.4155 19.2773C21.4155 14.5329 21.4155 9.78862 21.4155 5.0443C21.4155 5.02753 21.4239 5.00239 21.4323 4.98562C21.5748 4.94371 26.4365 4.92695 26.7885 4.96886Z" fill="#88838F"/>
<path id="Vector_8" d="M15.7492 26.1676C14.9529 26.1676 14.1734 26.1676 13.3687 26.1676C13.4022 26.0754 13.4273 26 13.4525 25.9329C13.771 25.1198 14.1063 24.3067 14.4164 23.4853C14.4919 23.2925 14.5422 23.0829 14.5506 22.8818C14.5757 22.5213 14.3745 22.2699 14.0392 22.1525C13.704 22.0436 13.3603 22.0603 13.025 22.1274C12.0108 22.3286 11.1474 22.8147 10.3595 23.4685C9.95712 23.7954 9.59668 24.1642 9.29492 24.5834C9.09375 24.8516 8.9261 25.145 8.85067 25.4719C8.73331 25.9497 8.87581 26.3269 9.25301 26.6286C9.46256 26.7879 9.69727 26.9052 9.94873 26.989C10.9462 27.3327 11.9102 27.7518 12.8071 28.2967C12.9579 28.3889 13.0921 28.4978 13.201 28.632C13.8045 29.378 13.9387 30.1994 13.5195 31.0712C13.0753 32.0016 12.346 32.5967 11.3318 32.8398C11.1809 32.8734 11.0133 32.8901 10.854 32.8901C8.78361 32.8901 6.71321 32.8901 4.6428 32.8901C4.59251 32.8901 4.5506 32.8817 4.50031 32.8817C4.50869 32.7392 5.27985 30.9287 5.45588 30.6437C5.53132 30.6437 5.60676 30.6437 5.69058 30.6437C7.31672 30.6437 8.95125 30.6437 10.5774 30.6437C10.6864 30.6437 10.7953 30.6353 10.8959 30.6102C11.1055 30.5599 11.1893 30.3838 11.1222 30.1743C11.0719 30.0318 10.9714 29.9396 10.8372 29.8809C10.3175 29.6378 9.80624 29.3947 9.28654 29.16C8.92611 28.9924 8.55729 28.8499 8.20524 28.6739C7.69392 28.4224 7.2329 28.1039 6.8557 27.668C6.40306 27.1567 6.15998 26.5616 6.19351 25.8658C6.20189 25.7066 6.21866 25.5389 6.27733 25.3964C7.25805 22.7896 9.05184 21.0293 11.7509 20.2498C12.7484 19.9648 13.7794 19.9145 14.8188 20.0654C15.3385 20.1408 15.8247 20.3084 16.2354 20.6353C16.7383 21.0293 16.9898 21.5658 17.0401 22.1944C17.0568 22.4375 17.0485 22.689 17.0149 22.9321C16.9898 23.1165 16.9311 23.3009 16.864 23.4685C16.512 24.399 16.1348 25.2791 15.7492 26.1676Z" fill="#88838F"/>
<path id="Vector_9" d="M16.4199 25.0107C16.5204 24.7677 16.6127 24.5497 16.7049 24.3318C21.8431 24.3318 26.973 24.3318 32.1281 24.3318C32.0275 24.5749 31.9353 24.7928 31.8431 25.0107C26.7048 25.0107 21.5833 25.0107 16.4199 25.0107Z" fill="#88838F"/>
<path id="Vector_10" d="M34.408 25.0107C34.5002 24.7677 34.5924 24.5497 34.6762 24.3318C38.4314 24.3318 42.1699 24.3318 45.9502 24.3318C45.8413 24.5665 45.7491 24.7844 45.6401 25.0107C45.5814 25.0191 45.5228 25.0191 45.4641 25.0191C44.8354 25.0191 44.2067 25.0191 43.5781 25.0191C43.5026 25.0191 43.4188 25.0107 43.3434 24.994C42.6728 24.818 42.0106 24.818 41.34 24.994C41.2646 25.0107 41.1808 25.0191 41.1053 25.0191C38.9427 25.0191 36.7801 25.0191 34.6175 25.0191C34.5505 25.0191 34.5002 25.0107 34.408 25.0107Z" fill="#88838F"/>
<path id="Vector_11" d="M21.2227 10.4175C21.2227 10.6606 21.2227 10.8786 21.2227 11.1133C21.1557 11.1216 21.097 11.13 21.0383 11.13C20.0744 11.13 19.1104 11.13 18.1465 11.13C18.071 11.13 17.9788 11.1216 17.9118 11.0881C17.5094 10.8953 17.0903 10.778 16.6377 10.7444C16.6041 10.7444 16.579 10.7361 16.5203 10.7193C16.5874 10.6271 16.6293 10.5517 16.6964 10.4762C16.7215 10.4427 16.7718 10.4343 16.8137 10.4175C16.8472 10.4092 16.8808 10.4175 16.9143 10.4175C18.2806 10.4175 19.6469 10.4175 21.0132 10.4175C21.0802 10.4175 21.1389 10.4175 21.2227 10.4175Z" fill="#88838F"/>
<path id="Vector_12" d="M13.9135 24.3235C13.8129 24.575 13.7291 24.7846 13.6453 25.0109C12.1784 25.0109 10.7199 25.0109 9.23627 25.0109C9.362 24.7594 9.52964 24.5583 9.69729 24.3655C9.72243 24.3403 9.76435 24.3319 9.80626 24.3235C9.84817 24.3152 9.89846 24.3235 9.94875 24.3235C11.1893 24.3235 12.4383 24.3235 13.6788 24.3235C13.7459 24.3235 13.8129 24.3235 13.9135 24.3235Z" fill="#88838F"/>
<path id="Vector_13" d="M12.3293 27.802C13.3435 27.802 14.3662 27.802 15.4056 27.802C15.305 28.0367 15.2044 28.263 15.1122 28.4893C15.0786 28.4977 15.0451 28.4977 15.0116 28.4977C14.4835 28.4977 13.9554 28.4977 13.4274 28.4977C13.3687 28.4977 13.2932 28.481 13.2681 28.4474C13.1088 28.2546 12.8825 28.1624 12.6813 28.0367C12.564 27.9613 12.4466 27.9026 12.3293 27.8271C12.3209 27.8188 12.3209 27.8104 12.3293 27.802Z" fill="#88838F"/>
<path id="Vector_14" d="M13.9554 17.3831C13.9554 17.6178 13.9554 17.8273 13.9554 18.0453C13.8129 18.0955 12.0694 18.1039 11.7341 18.062C11.709 17.8441 11.7257 17.6178 11.7257 17.3831C12.4718 17.3831 13.201 17.3831 13.9554 17.3831Z" fill="#88838F"/>
<path id="Vector_15" d="M18.75 7.63461C18.9176 7.40829 19.0601 7.19873 19.211 6.99756C19.2362 6.96403 19.2865 6.94727 19.3284 6.94727C19.9487 6.94727 20.5689 6.94727 21.2144 6.94727C21.2395 7.18197 21.2227 7.40829 21.2227 7.62622C21.0719 7.65975 19.0769 7.67652 18.75 7.63461Z" fill="#88838F"/>
<path id="Vector_16" d="M50.8873 27.7936C51.516 27.7936 52.1363 27.7936 52.7817 27.7936C52.7566 27.8355 52.7482 27.869 52.723 27.8942C52.5638 28.0618 52.4045 28.2378 52.2452 28.4055C52.195 28.4642 52.1447 28.4977 52.0608 28.4977C51.5831 28.4977 51.0969 28.4977 50.5856 28.4977C50.661 28.2378 50.7784 28.0199 50.8873 27.7936Z" fill="#88838F"/>
<path id="Vector_17" d="M27.0065 10.4342C27.5848 10.4342 28.1464 10.4342 28.7081 10.4342C28.7081 10.6605 28.7081 10.8785 28.7081 11.1299C28.1464 11.1383 27.5765 11.1299 27.0065 11.1383C27.0065 10.8952 27.0065 10.6689 27.0065 10.4342Z" fill="#88838F"/>
<path id="Vector_18" d="M28.7165 18.0704C28.1298 18.0704 27.5765 18.0704 26.9982 18.0704C26.9982 17.8357 26.9982 17.6178 26.9982 17.3831C27.5682 17.3831 28.1214 17.3831 28.7081 17.3831C28.7333 17.601 28.7165 17.8273 28.7165 18.0704Z" fill="#88838F"/>
<path id="Vector_19" d="M37.7358 31.2639C37.8196 31.507 37.895 31.7249 37.9705 31.9596C37.2496 31.9596 36.5455 31.9596 35.8246 31.9596C35.8498 31.9177 35.8582 31.8842 35.8833 31.8591C36.0342 31.6914 36.1851 31.5238 36.3443 31.3561C36.3863 31.3142 36.4533 31.2639 36.5036 31.2639C36.9143 31.2639 37.3167 31.2639 37.7358 31.2639Z" fill="#88838F"/>
<path id="Vector_20" d="M22.6478 31.9596C21.9353 31.9596 21.2396 31.9596 20.5187 31.9596C20.5606 31.9093 20.5774 31.8674 20.6026 31.8423C20.7367 31.683 20.8624 31.5238 20.9965 31.3561C21.0384 31.2974 21.0887 31.2639 21.1642 31.2639C21.5665 31.2639 21.9689 31.2639 22.3712 31.2639C22.4718 31.4986 22.5556 31.7249 22.6478 31.9596Z" fill="#88838F"/>
<path id="Vector_21" d="M26.9982 7.63465C26.9982 7.39994 26.9982 7.18201 26.9982 6.95569C27.5682 6.95569 28.1298 6.95569 28.7081 6.95569C28.7081 7.18201 28.7081 7.39994 28.7081 7.61788C28.5656 7.65979 27.3251 7.67656 26.9982 7.63465Z" fill="#88838F"/>
<path id="Vector_22" d="M26.9982 14.5833C26.9982 14.357 26.9982 14.1474 26.9982 13.9379C27.1407 13.896 28.4148 13.8792 28.7081 13.9211C28.7081 14.1391 28.7081 14.3486 28.7081 14.5666C28.5656 14.6085 27.3167 14.6168 26.9982 14.5833Z" fill="#88838F"/>
<path id="Vector_23" d="M21.2144 18.0703C20.7031 18.0703 20.2002 18.0703 19.6888 18.0703C19.6888 17.844 19.6888 17.626 19.6888 17.4081C19.823 17.3662 20.8288 17.3494 21.2144 17.3829C21.2144 17.6009 21.2144 17.8272 21.2144 18.0703Z" fill="#88838F"/>
<path id="Vector_24" d="M34.5924 17.3663C35.0031 17.3663 35.3971 17.3663 35.7911 17.3663C35.8246 17.3663 35.8749 17.3831 35.9 17.4082C36.0509 17.6178 36.2018 17.8274 36.3694 18.0621C35.7575 18.0621 35.1792 18.0621 34.5924 18.0621C34.5924 17.8357 34.5924 17.6178 34.5924 17.3663Z" fill="#88838F"/>
<path id="Vector_25" d="M44.2822 18.0704C43.7542 18.0704 43.2429 18.0704 42.7064 18.0704C42.6729 17.8441 42.698 17.6262 42.6896 17.3747C43.1758 17.3663 43.6452 17.3747 44.123 17.3663C44.1733 17.601 44.2236 17.819 44.2822 18.0704Z" fill="#88838F"/>
<path id="Vector_26" d="M14.8356 31.2891C14.9278 31.5154 15.0116 31.725 15.1038 31.9597C14.4584 31.9597 13.8297 31.9597 13.1759 31.9597C13.2765 31.8255 13.3855 31.7082 13.4441 31.5741C13.5615 31.2975 13.7543 31.2388 14.0309 31.2639C14.2824 31.2891 14.5422 31.2723 14.7937 31.2723C14.802 31.2723 14.8104 31.2807 14.8356 31.2891Z" fill="#88838F"/>
<path id="Vector_27" d="M19.6888 14.5918C19.6888 14.3655 19.6888 14.1559 19.6888 13.938C19.823 13.8877 20.8707 13.8793 21.2144 13.9128C21.2144 14.1308 21.2144 14.3571 21.2144 14.5834C20.7115 14.5918 20.2085 14.5918 19.6888 14.5918Z" fill="#88838F"/>
<path id="Vector_28" d="M44.1313 11.1216C43.6452 11.1216 43.1841 11.1216 42.7064 11.1216C42.7064 10.8953 42.7064 10.6773 42.7064 10.4259C43.1674 10.4175 43.6368 10.4259 44.1146 10.4175C44.1481 10.6522 44.1313 10.8785 44.1313 11.1216Z" fill="#88838F"/>
<path id="Vector_29" d="M44.123 14.5918C43.6452 14.5918 43.1841 14.5918 42.7064 14.5918C42.7064 14.3655 42.7064 14.1392 42.7064 13.9128C43.1758 13.9128 43.6452 13.9128 44.123 13.9128C44.123 14.1392 44.123 14.3487 44.123 14.5918Z" fill="#88838F"/>
<path id="Vector_30" d="M44.123 6.96397C44.123 7.19867 44.123 7.41661 44.123 7.64293C43.6452 7.64293 43.1841 7.64293 42.7064 7.64293C42.7064 7.41661 42.7064 7.19867 42.7064 6.98073C42.8405 6.93044 43.8631 6.92206 44.123 6.96397Z" fill="#88838F"/>
<path id="Vector_31" d="M46.7633 31.2975C46.7633 31.5154 46.7633 31.7334 46.7633 31.9597C46.2353 31.9597 45.7156 31.9597 45.1456 31.9597C45.3048 31.7334 45.4473 31.5238 45.5982 31.3226C45.615 31.2975 45.6653 31.2723 45.6988 31.2723C46.0425 31.2723 46.3778 31.2723 46.7214 31.2723C46.7382 31.2723 46.755 31.2891 46.7633 31.2975Z" fill="#88838F"/>
<path id="Vector_32" d="M50.0743 13.9044C50.6527 13.9044 51.2143 13.9044 51.7843 13.9044C51.7927 14.114 51.7089 14.2732 51.5496 14.3906C51.2059 14.6504 50.6024 14.6337 50.2755 14.3571C50.1582 14.2481 50.0743 14.1056 50.0743 13.9044Z" fill="#88838F"/>
<path id="Vector_33" d="M13.0166 6.95565C12.8406 7.19035 12.6897 7.39152 12.5389 7.59269C12.5137 7.62622 12.4634 7.65137 12.4215 7.65137C12.212 7.65975 11.994 7.65137 11.7677 7.65137C11.7677 7.40829 11.7677 7.19035 11.7677 6.94727C12.1784 6.95565 12.5724 6.95565 13.0166 6.95565Z" fill="#88838F"/>
<path id="Vector_34" d="M29.3452 31.2639C29.2446 31.5238 29.1607 31.7417 29.0769 31.9597C28.75 31.9597 28.4315 31.9597 28.0878 31.9597C28.1214 31.9094 28.1465 31.8675 28.1717 31.8423C28.3058 31.683 28.4315 31.5154 28.5656 31.3645C28.5991 31.3226 28.6578 31.2807 28.7081 31.2723C28.9093 31.2556 29.1021 31.2639 29.3452 31.2639Z" fill="#88838F"/>
<path id="Vector_35" d="M36.5873 7.63461C36.3023 7.70166 36.0928 7.64299 35.9503 7.38314C35.8665 7.24064 35.7407 7.11491 35.615 6.94727C35.9587 6.94727 36.2688 6.94727 36.5873 6.94727C36.5873 7.18197 36.5873 7.3999 36.5873 7.63461Z" fill="#88838F"/>
<path id="Vector_36" d="M22.9328 27.7936C22.916 27.9025 22.8909 27.9696 22.7903 27.9696C22.5975 27.9696 22.4047 27.9696 22.2035 27.9696C22.1951 27.9025 22.1867 27.8523 22.17 27.7936C22.4298 27.7936 22.6729 27.7936 22.9328 27.7936Z" fill="#88838F"/>
<path id="Vector_37" d="M30.6193 27.8103C30.3427 27.8103 30.066 27.8103 29.7894 27.8103C29.7894 27.802 29.7894 27.802 29.7894 27.7936C30.066 27.7936 30.3343 27.7936 30.6109 27.7936C30.6193 27.802 30.6193 27.8103 30.6193 27.8103Z" fill="#88838F"/>
<path id="Vector_38" d="M38.3057 27.8103C38.1213 27.8103 37.9369 27.8103 37.7525 27.8103C37.7525 27.802 37.7525 27.802 37.7525 27.7936C37.9369 27.7936 38.1213 27.7936 38.3057 27.7936C38.3057 27.802 38.3057 27.8103 38.3057 27.8103Z" fill="#88838F"/>
<path id="Vector_39" d="M64.6677 37.1566C64.6845 37.3075 64.5922 37.4835 64.8186 37.6176C64.6174 37.6176 64.4665 37.6176 64.2737 37.6176C64.4581 37.517 64.4162 37.3661 64.4162 37.232C64.4162 37.0811 64.4162 36.9386 64.4162 36.7878C64.4246 36.662 64.4162 36.5447 64.2318 36.486C64.3156 36.4609 64.3492 36.4441 64.3827 36.4441C64.5755 36.4441 64.7683 36.4441 64.9611 36.4525C65.0868 36.4609 65.1958 36.5279 65.2209 36.662C65.2544 36.7961 65.2293 36.9135 65.1203 37.0057C65.0868 37.0308 65.0616 37.056 65.0114 37.0979C65.1287 37.2739 65.2461 37.4416 65.3634 37.6092C65.1455 37.6595 65.0952 37.6344 64.9862 37.4583C64.9359 37.3745 64.8856 37.2823 64.827 37.2069C64.8018 37.1733 64.7515 37.1482 64.718 37.123C64.6928 37.1314 64.6845 37.1398 64.6677 37.1566ZM64.6761 37.0141C64.8102 37.0392 64.9108 37.0225 64.9611 36.8967C65.003 36.8045 65.0114 36.7039 64.9443 36.6117C64.8772 36.5111 64.7767 36.5363 64.6761 36.5447C64.6761 36.7123 64.6761 36.8632 64.6761 37.0141Z" fill="#88838F"/>
</g>
</svg>
