<svg width="117" height="34" viewBox="0 0 117 34" fill="none" xmlns="http://www.w3.org/2000/svg">
<g id="Fred meyer">
<g id="fred meyer">
<path id="Path_26" fill-rule="evenodd" clip-rule="evenodd" d="M26.576 19.3292C26.7916 17.9382 27.6944 17.0695 29.0522 17.0695C30.1276 17.0695 30.904 18.137 30.7184 19.3292H26.576ZM34.8708 21.9626C35.6708 17.2427 33.6243 13.915 29.3694 13.915C25.686 13.915 22.4323 16.647 21.766 20.9192C21.0864 25.2903 23.566 27.6763 27.2517 27.6763C29.9264 27.6763 32.9874 26.6091 34.2792 23.3809H29.9146C29.4651 24.1486 28.75 24.5226 28.0262 24.5226C26.8197 24.5226 25.926 23.5036 26.1653 21.9642L34.8708 21.9626Z" fill="#88838F"/>
<path id="Path_27" fill-rule="evenodd" clip-rule="evenodd" d="M47.1969 27.3032L49.9816 9.42004H45.4197L44.4578 15.6044C43.6932 14.3131 42.7466 13.9155 41.2986 13.9155C38.558 13.9155 35.9942 16.7228 35.3211 21.0443C34.7496 24.7207 36.0449 27.6756 39.5081 27.6756C40.9771 27.6756 42.0445 27.1544 43.3675 25.5653L43.0951 27.3036L47.1969 27.3032ZM41.2277 23.9506C39.737 23.9506 39.6772 22.3603 39.889 20.9953C40.1134 19.5549 40.7866 17.9157 42.2986 17.9157C43.8106 17.9157 44.0064 19.4796 43.7843 20.92C43.5485 22.4345 42.8083 23.949 41.2292 23.949L41.2277 23.9506Z" fill="#88838F"/>
<path id="Path_28" fill-rule="evenodd" clip-rule="evenodd" d="M74.3923 19.3292C74.6094 17.9382 75.5123 17.0695 76.8712 17.0695C77.9458 17.0695 78.7226 18.137 78.5359 19.3292H74.3923ZM82.6872 21.9626C83.4894 17.2427 81.4407 13.915 77.1866 13.915C73.502 13.915 70.2494 16.647 69.5828 20.9192C68.9024 25.2903 71.3839 27.6763 75.0662 27.6763C77.742 27.6763 80.8033 26.6091 82.0955 23.3809H77.7317C77.2837 24.1486 76.566 24.5226 75.8433 24.5226C74.6365 24.5226 73.7432 23.5036 73.9824 21.9642L82.6872 21.9626Z" fill="#88838F"/>
<path id="Path_29" fill-rule="evenodd" clip-rule="evenodd" d="M98.2483 19.3292C98.4651 17.9382 99.3672 17.0695 100.728 17.0695C101.8 17.0695 102.577 18.137 102.393 19.3292H98.2483ZM106.544 21.9626C107.344 17.2427 105.296 13.915 101.042 13.915C97.3584 13.915 94.1047 16.647 93.4391 20.9192C92.7595 25.2903 95.2384 27.6763 98.9226 27.6763C101.596 27.6763 104.658 26.6091 105.95 23.3809H101.585C101.137 24.1486 100.42 24.5226 99.6967 24.5226C98.4921 24.5226 97.5976 23.5036 97.8384 21.9642L106.544 21.9626Z" fill="#88838F"/>
<path id="Path_30" d="M5.77782 27.3032L6.75535 21.0183H12.4129L13.0628 16.8459H7.40487L7.91154 13.5924H15.0163L15.6662 9.42004H3.3862L0.60144 27.3032H5.77782Z" fill="#88838F"/>
<path id="Path_31" d="M12.334 27.3032H16.8951L17.5953 22.807C18.0323 20.0012 19.129 19.0074 20.9927 19.0074C21.2997 19.0074 21.6144 19.1072 21.9123 19.1562L22.7165 13.9912C22.5233 13.9656 22.3336 13.9163 22.1367 13.9163C20.3607 13.9163 19.0909 14.8852 18.1367 16.922H18.0959L18.5058 14.2895H14.3599L12.334 27.3039V27.3032Z" fill="#88838F"/>
<path id="Path_32" d="M54.7127 27.3032L55.6555 21.2427L55.979 18.4614L56.1698 15.8285H56.214L57.3005 27.3032H60.8959L65.555 15.8285H65.5995L64.8331 19.0567L64.3359 21.8392L63.4849 27.3032H68.1336L70.9173 9.42004H64.6681L60.1462 20.5717L59.0978 9.42004H52.8472L50.0635 27.3032H54.7127Z" fill="#88838F"/>
<path id="Path_33" d="M87.0864 14.2887H82.5013L84.4285 26.1362C84.6647 27.5762 84.2635 28.0492 82.838 28.0492C82.531 28.0492 82.2266 28.0236 81.8997 28.0236L81.3378 31.6258C81.6883 31.6258 82.5058 31.7245 83.3397 31.7245C87.3961 31.7245 88.075 30.4573 89.9077 26.4329L95.483 14.2887H91.0967L87.8529 22.3107L87.0864 14.2887Z" fill="#88838F"/>
<path id="Path_34" d="M106.217 27.3032H110.776L111.477 22.807C111.914 20.0012 113.009 19.0074 114.875 19.0074C115.18 19.0074 115.496 19.1072 115.793 19.1562L116.599 13.9912C116.405 13.9656 116.216 13.9163 116.019 13.9163C114.242 13.9163 112.973 14.8852 112.019 16.922H111.976L112.386 14.2895H108.241L106.217 27.3039L106.217 27.3032Z" fill="#88838F"/>
<path id="Path_35" fill-rule="evenodd" clip-rule="evenodd" d="M115.999 25.8433C115.999 24.9039 115.277 24.1525 114.371 24.1525H114.363C113.924 24.1534 113.504 24.3323 113.196 24.6496C112.887 24.9669 112.715 25.3965 112.718 25.8433C112.718 26.7978 113.454 27.5419 114.361 27.5419C115.275 27.5419 115.999 26.7975 115.999 25.8433ZM113.035 25.8449C113.035 25.0565 113.633 24.4165 114.363 24.4165L114.369 24.4162C115.105 24.4162 115.696 25.0569 115.696 25.853C115.696 26.6491 115.105 27.2876 114.369 27.279C113.633 27.279 113.035 26.6491 113.035 25.8449ZM114.053 26.8301H113.76V24.9416C113.932 24.9123 114.107 24.8971 114.282 24.8962C114.563 24.8962 114.747 24.9564 114.857 25.0391C114.967 25.1218 115.026 25.2484 115.026 25.4294C115.026 25.6775 114.864 25.8278 114.665 25.8876V25.9032C114.828 25.9327 114.938 26.0838 114.975 26.3606C115.019 26.6542 115.063 26.7668 115.092 26.8266H114.782C114.739 26.7657 114.694 26.5936 114.657 26.3443C114.613 26.1051 114.494 26.0146 114.258 26.0146H114.052L114.053 26.8301ZM114.267 25.7847H114.053V25.1471C114.124 25.1364 114.195 25.1312 114.267 25.1315C114.6 25.1315 114.718 25.2954 114.718 25.4609C114.718 25.6942 114.511 25.7847 114.267 25.7847Z" fill="#88838F"/>
</g>
</g>
</svg>
