<svg width="130" height="37" viewBox="0 0 130 37" fill="none" xmlns="http://www.w3.org/2000/svg">
<g id="Safeway">
<g id="Safeway_2">
<g id="Group">
<path id="Path" d="M7.40781 17.2727L6.2034 16.5794C4.7469 15.7567 3.96088 15.1142 3.96088 14.1303C3.96088 13.038 4.87644 12.3552 6.35045 12.3552C7.33954 12.3552 8.55795 12.7631 10.207 13.6297L10.4153 13.7417L10.4188 10.8882C10.4153 10.8812 10.3873 10.8655 10.3873 10.8655C8.96059 10.1827 7.60913 9.86414 6.13162 9.86414C3.03831 9.86414 0.956848 11.6357 0.956848 14.2669C0.956848 16.4429 2.38359 17.7191 4.52457 18.955L5.77625 19.6938C7.56536 20.7161 8.19033 21.4759 8.19033 22.584C8.19033 23.8724 7.01568 24.7757 5.3351 24.7757C3.98889 24.7757 2.53414 24.2576 0.750277 23.1319L0.687256 23.0864V26.3618C0.689006 26.374 0.916584 26.4948 0.916584 26.4948C2.31531 27.1408 3.85059 27.4682 5.47515 27.4682C8.97985 27.4682 11.3379 25.4795 11.3379 22.5175C11.3379 20.3782 10.235 18.9042 7.40781 17.2727Z" fill="#88838F"/>
</g>
<g id="Group_2">
<path id="Path_2" d="M28.8527 10.262V27.087H31.89V19.7082H38.5877V17.0753H31.89V12.9246H38.9326V10.262H28.8527Z" fill="#88838F"/>
</g>
<g id="Group_3">
<path id="Path_3" d="M43.8693 19.5893H50.3045V16.9546H43.8693V12.9212H50.8524V10.2621H40.888V27.0854H50.9732V24.3929H43.8693V19.5893Z" fill="#88838F"/>
</g>
<g id="Group_4">
<path id="Path_4" d="M98.3531 10.262H94.7154C94.7154 10.262 93.0593 12.8196 90.8623 16.228C90.7048 16.4836 90.556 16.7024 90.5052 16.8687C90.5122 16.8687 90.4684 16.8617 90.4614 16.8687C90.3984 16.7024 90.2531 16.4766 90.0956 16.2333C87.72 12.5798 86.2372 10.262 86.2372 10.262H82.5942C82.5942 10.262 88.9279 19.4176 88.9454 19.4386V27.087H92.0125V19.4176C92.3503 18.9397 98.3531 10.262 98.3531 10.262Z" fill="#88838F"/>
</g>
<g id="Group_5">
<path id="Shape" fill-rule="evenodd" clip-rule="evenodd" d="M78.3219 9.72009H78.6108L86.6443 27.0878H83.3654L82.1032 24.159H74.8347L73.5638 27.0878H70.2849L78.3219 9.72009ZM78.2081 16.2621C77.3083 18.3453 75.8763 21.7152 75.8763 21.7152H81.0494C81.0494 21.7152 79.6559 18.4591 78.7176 16.2621C78.581 15.905 78.4865 15.4446 78.4865 15.4446H78.4515C78.4515 15.4446 78.3674 15.9067 78.2081 16.2621Z" fill="#88838F"/>
</g>
<g id="Group_6">
<path id="Path_5" d="M62.5992 17.6421C62.7007 17.3988 62.8285 16.9121 62.8425 16.8018H62.8793C62.8898 16.9016 63.0158 17.3953 63.1244 17.6421C63.6811 19.0251 67.184 27.6695 67.184 27.6695H67.4659L73.5965 10.2598H70.3929C70.3929 10.2598 68.0996 17.355 67.3678 19.6343C67.282 19.8846 67.156 20.352 67.1473 20.4606H67.1122C67.1 20.359 66.9669 19.8811 66.8724 19.6343C66.3035 18.148 62.9896 9.64185 62.9896 9.64185H62.7252C62.7252 9.64185 59.5566 17.8101 58.8547 19.608C58.7461 19.8899 58.6323 20.359 58.6166 20.4606H58.5798C58.5658 20.352 58.438 19.8846 58.354 19.6343C57.6047 17.2762 55.3167 10.2598 55.3167 10.2598H52.1183L58.2384 27.6695H58.5255C58.5255 27.6695 61.9375 19.2771 62.5992 17.6421Z" fill="#88838F"/>
</g>
<g id="Group_7">
<path id="Shape_2" fill-rule="evenodd" clip-rule="evenodd" d="M19.4414 9.71973H19.7285L27.7602 27.0839H24.4901L23.2157 24.1587H15.9489L14.678 27.0839H11.4096L19.4414 9.71973ZM19.3258 16.2582C18.4243 18.3449 16.9975 21.7148 16.9975 21.7148H22.1705C22.1705 21.7148 20.7788 18.4587 19.837 16.2582C19.6952 15.9046 19.6024 15.4407 19.6024 15.4407H19.5674C19.5674 15.4407 19.4764 15.9046 19.3258 16.2582Z" fill="#88838F"/>
</g>
<g id="Group_8">
<path id="Path_6" d="M115.478 25.8976C115.478 21.2305 108.46 20.7981 108.46 14.1861C108.46 9.40874 112.22 7.04368 115.956 6.65505C115.611 6.63404 115.256 6.62354 114.75 6.62354C113.84 6.62354 113.397 6.66205 112.635 6.69181C105.643 7.03668 101.911 10.7234 101.678 16.3954C101.661 16.7648 101.624 17.3967 101.624 18.4068C101.624 19.3959 101.661 20.0349 101.678 20.3938C101.909 25.9187 105.444 29.5599 112.078 30.0641C113.152 29.868 115.478 29.0715 115.478 25.8976Z" fill="#88838F"/>
</g>
<g id="Group_9">
<path id="Path_7" d="M127.818 16.394C127.597 11.0232 124.239 7.42742 117.946 6.7832C116.826 7.00728 114.623 7.83531 114.623 10.9304C114.623 15.5905 121.638 16.0246 121.638 22.6419C121.638 26.7698 118.471 29.7966 113.703 30.1485C114.014 30.159 114.327 30.1625 114.751 30.1625C115.658 30.1625 116.097 30.1397 116.869 30.0959C123.859 29.7686 127.587 26.0766 127.818 20.3959C127.832 20.0352 127.868 19.3963 127.868 18.4037C127.868 17.3936 127.832 16.7669 127.818 16.394Z" fill="#88838F"/>
</g>
<g id="Group_10">
<path id="Shape_3" fill-rule="evenodd" clip-rule="evenodd" d="M127.087 28.0358C126.581 28.0358 126.175 28.4384 126.175 28.9303C126.175 29.4275 126.581 29.8284 127.087 29.8284C127.589 29.8284 127.992 29.4275 127.992 28.9303C127.992 28.4384 127.589 28.0358 127.087 28.0358ZM127.087 28.1461C127.526 28.1461 127.885 28.4962 127.885 28.9303C127.885 29.368 127.526 29.7198 127.087 29.7198C126.644 29.7198 126.285 29.368 126.285 28.9303C126.285 28.4962 126.644 28.1461 127.087 28.1461ZM127.537 29.4327H127.39L127.099 28.9688H126.872V29.4327H126.747V28.4314H127.19C127.276 28.4314 127.362 28.4349 127.437 28.4804C127.516 28.5224 127.553 28.61 127.553 28.6957C127.553 28.8936 127.413 28.9653 127.232 28.9688L127.537 29.4327ZM127.102 28.8747C127.089 28.8745 127.075 28.8743 127.062 28.8743H126.872V28.5189H127.162C127.288 28.5189 127.427 28.5364 127.427 28.694C127.427 28.879 127.243 28.8766 127.102 28.8747Z" fill="#88838F"/>
</g>
</g>
</g>
</svg>
