<svg width="185" height="25" viewBox="0 0 185 25" fill="none" xmlns="http://www.w3.org/2000/svg">
<g id="CVS logo">
<path id="Shape" fill-rule="evenodd" clip-rule="evenodd" d="M67.3201 14.0458C67.6273 15.4332 68.4261 15.9158 70.0851 15.9158C71.5597 15.9158 72.3585 15.4031 72.3585 14.5887C72.3585 13.5626 71.5403 13.3628 69.8427 12.9481C69.5942 12.8874 69.3269 12.822 69.0405 12.7489C66.3984 12.0552 64.7087 11.4821 63.9406 10.9392C62.466 9.94386 61.7593 8.49612 61.7593 6.65627C61.7593 3.06707 64.6472 0.714478 69.6857 0.714478C74.5705 0.714478 77.4277 2.82577 77.7656 6.56579H72.0206C71.8362 5.44982 71.0375 4.93707 69.5628 4.93707C68.2725 4.93707 67.658 5.35933 67.658 6.20385C67.658 7.14055 68.5287 7.356 70.1421 7.75522C70.2431 7.78021 70.347 7.80592 70.4537 7.83257C70.8194 7.92581 71.1726 8.01328 71.5128 8.09756C73.3738 8.55849 74.8479 8.92361 75.8609 9.61209C77.5199 10.6979 78.2879 12.025 78.2879 13.9553C78.2879 17.997 75.3386 20.3495 69.8393 20.3495C64.7701 20.3495 61.7901 17.997 61.3907 14.0157H67.3201V14.0458ZM98.1652 10.1549H98.1345V4.27346H95.646V19.8971H98.1345V13.2917C98.1345 11.663 99.2712 10.5169 100.807 10.5169C102.19 10.5169 103.019 11.3614 103.019 12.6583V19.8971H105.508V12.3567C105.508 9.9438 104.002 8.37541 101.606 8.37541C100.009 8.37541 98.9947 9.0088 98.1652 10.1549ZM83.0499 8.64697H85.5076V10.1249H85.5691C86.3371 9.09939 87.4431 8.34536 89.0714 8.34536C92.0515 8.34536 94.0177 10.6979 94.0177 14.2872C94.0177 17.9065 92.0822 20.1988 89.0714 20.1988C87.4739 20.1988 86.4293 19.6257 85.6612 18.6002H85.5998V24.0293H83.1113L83.0499 8.64697ZM91.4063 14.3474C91.4063 12.0853 90.5154 10.3963 88.5184 10.3963C86.3679 10.3963 85.4769 12.1758 85.4769 14.3474C85.4769 16.5492 86.46 18.1478 88.6106 18.1478C90.3617 18.1478 91.4063 16.6699 91.4063 14.3474ZM114.479 18.4492C113.834 19.3239 112.85 20.1382 110.915 20.1382C108.703 20.1382 107.075 19.0223 107.075 16.8507C107.075 14.2869 109.133 13.5932 111.775 13.2313L111.797 13.2278C113.504 12.9585 114.479 12.8047 114.479 11.8137C114.479 10.8485 113.711 10.2453 112.297 10.2453C110.761 10.2453 110.024 10.8485 109.963 12.1455H107.566C107.628 10.0945 109.072 8.40546 112.267 8.40546C115.339 8.40546 116.936 9.67224 116.936 12.2661V17.1824C116.936 17.9968 117.09 18.3286 117.92 18.1778H117.981V19.7461C117.735 19.897 117.397 19.9874 116.814 19.9874C115.431 20.0478 114.694 19.5953 114.479 18.4492ZM114.509 14.0761V15.8556C114.509 17.0319 113.526 18.359 111.56 18.3289C110.485 18.3289 109.655 17.9971 109.655 16.7605C109.655 15.4635 110.638 15.1619 112.267 14.8C113.096 14.619 113.956 14.4079 114.509 14.0761ZM121.821 10.5168H121.883C122.589 9.31039 123.48 8.58652 124.924 8.58652C125.262 8.58652 125.447 8.61668 125.662 8.677V10.9089H125.6C125.447 10.8486 125.231 10.8486 124.986 10.8486C123.265 10.8486 121.913 11.9948 121.913 14.1362V19.897H119.425V8.677H121.883L121.821 10.5168ZM129.318 8.64705H126.86L126.89 19.8369H129.379V13.1411C129.379 11.5425 130.516 10.4567 131.806 10.4567C132.912 10.4567 133.649 11.1806 133.649 12.5077V19.8671H136.138V13.1713C136.138 11.5727 137.182 10.4869 138.534 10.4869C139.64 10.4869 140.408 11.2108 140.408 12.5379V19.8972H142.927V12.2061C142.927 9.82334 141.545 8.3756 139.302 8.3756C137.858 8.3756 136.568 9.09947 135.831 10.3662H135.769C135.247 9.12963 134.11 8.3756 132.697 8.3756C131.192 8.3756 130.024 9.18995 129.379 10.2154H129.318V8.64705ZM151.898 18.4492C151.253 19.3239 150.27 20.1382 148.335 20.1382C146.123 20.1382 144.494 19.0223 144.494 16.8507C144.494 14.2869 146.553 13.5932 149.195 13.2313L149.217 13.2278C150.924 12.9585 151.898 12.8047 151.898 11.8137C151.898 10.8485 151.13 10.2453 149.717 10.2453C148.181 10.2453 147.444 10.8485 147.382 12.1455H144.986C145.047 10.0945 146.491 8.40546 149.686 8.40546C152.759 8.40546 154.356 9.67224 154.356 12.2661V17.1824C154.356 17.9968 154.51 18.3286 155.339 18.1778H155.401V19.7461C155.155 19.897 154.817 19.9874 154.233 19.9874C152.851 20.0478 152.113 19.5953 151.898 18.4492ZM151.898 14.0761V15.8556C151.898 17.0319 150.946 18.359 148.949 18.3289C147.874 18.3289 147.044 17.9971 147.044 16.7605C147.044 15.4635 148.027 15.1619 149.656 14.8C150.485 14.619 151.345 14.4079 151.898 14.0761ZM156.199 14.2872C156.199 10.9695 158.381 8.3756 161.822 8.3756C164.679 8.3756 166.491 9.97415 166.891 12.3871H164.402C164.187 11.1806 163.266 10.3662 161.914 10.3662C159.825 10.3662 158.749 11.9648 158.749 14.2571C158.749 16.5192 159.794 18.1479 161.883 18.1479C163.388 18.1479 164.341 17.3637 164.494 15.9159H166.952C166.768 18.4193 164.894 20.1989 161.914 20.1989C158.411 20.229 156.199 17.605 156.199 14.2872ZM168.335 22.0086V24.0294C168.826 24.15 169.287 24.2103 169.932 24.1802C171.899 24.1802 172.759 23.4563 173.619 21.0434L178.227 8.67723H175.647L173.619 14.5285C173.25 15.5239 172.882 16.8811 172.882 16.8811H172.82C172.82 16.8811 172.452 15.5239 172.083 14.5285L169.963 8.67723H167.29L171.591 19.6258L171.13 20.8926C170.793 21.8276 170.362 22.1594 169.41 22.1594C169.011 22.1594 168.673 22.099 168.396 22.0086H168.335ZM35.922 20.3797C41.3598 20.3797 44.6471 17.5144 44.985 12.6283H39.3014C39.1171 14.6189 37.9496 15.7047 36.1063 15.7047C33.6485 15.7047 32.3582 13.9554 32.3582 10.5773C32.3582 7.13888 33.5256 5.41968 35.922 5.41968C37.8882 5.41968 38.9942 6.44517 39.1478 8.31518H44.9236C44.5549 3.48935 41.3291 0.774829 35.8298 0.774829C29.9311 0.774829 26.2137 4.48468 26.2137 10.5773C26.2137 16.6096 29.8697 20.3797 35.922 20.3797ZM43.6947 1.28738H49.9006L53.0957 13.2916L56.5059 1.28738H62.466L56.1065 19.897H50.0542L43.6947 1.28738ZM4.76962 1.58914C5.2919 1.04623 5.99851 0.774782 6.73585 0.774782C7.47318 0.774782 8.17979 1.04623 8.73279 1.58914L12.0201 4.81641L15.2766 1.58914C15.8296 1.04623 16.5362 0.774782 17.2736 0.774782C17.9495 0.774782 18.6868 1.04623 19.2398 1.58914L23.203 5.47996C24.2782 6.56577 24.2782 8.31513 23.203 9.37078L12.0201 20.3797L0.806458 9.40094C-0.268819 8.31513 -0.268819 6.56577 0.806458 5.51012L4.76962 1.58914Z" fill="#88838F"/>
<path id="Shape_2" fill-rule="evenodd" clip-rule="evenodd" d="M180.275 3.74758C180.275 4.97773 181.171 5.88151 182.462 5.88151C183.648 5.88151 184.649 5.05304 184.649 3.74758C184.649 2.44212 183.621 1.61365 182.462 1.61365C181.303 1.61365 180.275 2.46722 180.275 3.74758ZM180.749 3.74776C180.749 2.71845 181.487 1.9904 182.462 1.9904C183.41 1.9904 184.175 2.71845 184.175 3.74776C184.175 4.77707 183.41 5.50511 182.462 5.50511C181.408 5.50511 180.749 4.72686 180.749 3.74776ZM182.04 4.95273H181.645V2.61795H182.567C183.173 2.61795 183.463 2.81879 183.463 3.29579C183.463 3.72258 183.2 3.89831 182.831 3.92342L183.516 4.97783H183.068L182.436 3.97363H182.067V4.95273H182.04ZM183.068 3.2957C183.068 3.62206 182.804 3.64717 182.488 3.64717H182.014V2.96933H182.515C182.778 2.96933 183.068 2.99443 183.068 3.2957Z" fill="#88838F"/>
</g>
</svg>
